<svg width="142" height="136" viewBox="0 0 142 136" fill="none" xmlns="http://www.w3.org/2000/svg">
<g id="fresh_6724542" clip-path="url(#clip0_820_52225)">
<g id="Group">
<path id="Vector" d="M96.6963 100.808C97.837 100.808 98.7617 99.9159 98.7617 98.8157V92.0396H106.795V98.8157C106.795 99.9159 107.72 100.808 108.861 100.808C110.002 100.808 110.926 99.9159 110.926 98.8157V81.8606C110.926 80.7604 110.002 79.8684 108.861 79.8684C107.72 79.8684 106.795 80.7604 106.795 81.8606V88.0552H98.7617V81.8606C98.7617 80.7604 97.837 79.8684 96.6963 79.8684C95.5556 79.8684 94.6309 80.7604 94.6309 81.8606V98.8157C94.6309 99.9162 95.5556 100.808 96.6963 100.808Z" fill="white"/>
<path id="Vector_2" d="M33.4082 100.746C34.5489 100.746 35.4736 99.8541 35.4736 98.7539V92.1712H39.919C41.0597 92.1712 41.9844 91.2792 41.9844 90.179C41.9844 89.0788 41.0597 88.1868 39.919 88.1868H35.4736V83.915H40.4808C41.6215 83.915 42.5462 83.0231 42.5462 81.9229C42.5462 80.8226 41.6215 79.9307 40.4808 79.9307H33.4082C32.2675 79.9307 31.3428 80.8226 31.3428 81.9229V98.7539C31.3428 99.8541 32.2675 100.746 33.4082 100.746Z" fill="white"/>
<path id="Vector_3" d="M64.1465 100.731H71.4856C72.6263 100.731 73.5511 99.8387 73.5511 98.7385C73.5511 97.6383 72.6263 96.7463 71.4856 96.7463H66.2119V92.3305H70.9445C72.0852 92.3305 73.0099 91.4386 73.0099 90.3384C73.0099 89.2381 72.0852 88.3462 70.9445 88.3462H66.2119V83.9304H71.4856C72.6263 83.9304 73.5511 83.0385 73.5511 81.9382C73.5511 80.838 72.6263 79.946 71.4856 79.946H64.1465C63.0058 79.946 62.0811 80.838 62.0811 81.9382V98.7387C62.0811 99.8387 63.0058 100.731 64.1465 100.731Z" fill="white"/>
<path id="Vector_4" d="M84.2985 100.808C87.9391 100.808 90.9954 98.5719 91.5657 95.4912C91.994 93.1778 90.8985 90.1534 86.5399 88.6027C84.3588 87.8266 82.3294 86.9811 81.7304 86.7277C81.1852 86.3162 81.2028 85.7369 81.2386 85.4965C81.2868 85.1732 81.5283 84.3833 82.7293 84.0342C85.2761 83.2942 87.6232 85.0861 87.6882 85.1363C88.5612 85.8354 89.8572 85.7244 90.5884 84.8853C91.3223 84.043 91.2094 82.7863 90.3364 82.0784C90.1725 81.9456 86.2716 78.8434 81.5377 80.2193C79.1605 80.91 77.4792 82.7151 77.1493 84.9305C76.8403 87.0058 77.7731 89.0022 79.5829 90.1404C79.6744 90.1978 79.7699 90.2483 79.8696 90.2908C79.9712 90.3346 82.3881 91.3721 85.1103 92.3409C85.9122 92.6261 87.7499 93.436 87.4993 94.7907C87.3143 95.79 86.0665 96.8235 84.2987 96.8235C82.515 96.8235 80.7971 96.1287 79.7033 94.9644C78.9374 94.1495 77.6315 94.0873 76.7858 94.826C75.9406 95.565 75.8765 96.8249 76.6423 97.6401C78.5059 99.6238 81.3683 100.808 84.2985 100.808Z" fill="white"/>
<path id="Vector_5" d="M47.5059 100.808C48.6465 100.808 49.5713 99.9159 49.5713 98.8157V93.6791L55.4594 100.132C55.8675 100.579 56.4376 100.808 57.0107 100.808C57.4954 100.808 57.982 100.644 58.3744 100.311C59.2306 99.5842 59.3141 98.3254 58.5603 97.4996L53.9533 92.4506C56.8986 91.723 59.0753 89.2269 59.0753 86.2668C59.0753 82.7385 55.9832 79.8682 52.1828 79.8682H47.5116V79.8684C47.5097 79.8684 47.5078 79.8682 47.5059 79.8682C46.3652 79.8682 45.4404 80.7601 45.4404 81.8604V98.8155C45.4404 99.9162 46.3652 100.808 47.5059 100.808ZM49.5713 83.8528H52.1828C53.6798 83.8528 54.9444 84.9583 54.9444 86.2671C54.9444 87.5758 53.6798 88.6813 52.1828 88.6813C51.6981 88.6813 50.509 88.684 49.5713 88.6874V83.8528Z" fill="white"/>
<path id="Vector_6" d="M134.989 81.8606L141.394 63.3269C141.604 62.7194 141.499 62.0516 141.11 61.5321C140.722 61.0125 140.098 60.7046 139.435 60.7046H117.359C113.786 60.7046 110.879 63.5086 110.879 66.9553V69.2216H104.648C105.789 65.8283 106.297 62.1815 106.157 58.3478C106.119 57.3025 105.249 56.4634 104.165 56.4267C95.3359 56.1269 87.3427 58.9807 81.6609 64.4614C80.1729 65.8965 78.8632 67.4951 77.7511 69.2214H73.0654V64.004C73.2044 61.094 74.336 58.3597 76.3089 56.1664C76.4053 56.1672 76.5028 56.1715 76.5992 56.1715C84.9295 56.1715 92.4363 53.3346 97.8475 48.1153C103.53 42.6347 106.488 34.9257 106.178 26.4085C106.139 25.363 105.27 24.5241 104.186 24.4875C95.3525 24.1884 87.3634 27.0415 81.6812 32.5221C79.4396 34.6843 77.609 37.196 76.2406 39.9875C75.7529 40.9823 76.1938 42.1699 77.2249 42.64C78.2562 43.1104 79.4875 42.6854 79.9749 41.6907C81.1398 39.3141 82.6966 37.1774 84.602 35.3396C89.0419 31.0572 95.182 28.6509 102.056 28.4625C101.861 35.0925 99.366 41.0157 94.9264 45.2979C91.185 48.9066 86.2345 51.1815 80.6562 51.921L92.3075 40.6829C93.1141 39.9049 93.1141 38.6437 92.3075 37.8657C91.5008 37.0877 90.193 37.0877 89.3867 37.8657L74.0447 52.6636C72.8148 53.8499 71.7914 55.1818 70.9895 56.6183C70.3486 55.4702 69.564 54.3907 68.6476 53.3976C68.7417 45.2107 65.7942 37.8237 60.2977 32.5224C54.6156 27.0417 46.6224 24.1878 37.7928 24.4875C36.7089 24.5241 35.8392 25.3632 35.8012 26.4085C35.4911 34.9257 38.4493 42.6347 44.1315 48.1153C49.5429 53.3351 57.0489 56.1715 65.3798 56.1715C65.4759 56.1715 65.5734 56.1672 65.67 56.1664C67.6426 58.36 68.7745 61.094 68.9136 64.004V69.2219H64.2496C63.1375 67.4956 61.8278 65.8971 60.3398 64.4619C54.6577 58.9813 46.6639 56.1271 37.8352 56.427C36.7513 56.4637 35.8816 57.3025 35.8436 58.348C35.7039 62.1818 36.2118 65.8285 37.3524 69.2219H31.122V66.9556C31.122 63.5088 28.2147 60.7049 24.6415 60.7049H2.56537C1.90141 60.7049 1.27792 61.0128 0.889897 61.5323C0.501872 62.0519 0.396122 62.7197 0.60597 63.3272L7.011 81.8609L0.60597 100.394C0.396122 101.002 0.501597 101.67 0.889897 102.189C1.2782 102.709 1.90168 103.017 2.56537 103.017H11.3955C12.5362 103.017 13.4609 102.125 13.4609 101.024C13.4609 99.9242 12.5362 99.0322 11.3955 99.0322H5.43109L11.1476 82.4909C11.2889 82.0819 11.2889 81.6399 11.1476 81.2308L5.43109 64.6895H24.641C25.9367 64.6895 26.9906 65.7064 26.9906 66.9559V69.2222H24.641C21.0675 69.2222 18.1605 72.0264 18.1605 75.4729V105.283C18.1605 108.73 21.0678 111.534 24.641 111.534H117.359C120.932 111.534 123.839 108.73 123.839 105.283V75.4729C123.839 72.0261 120.932 69.2222 117.359 69.2222H115.009V66.9559C115.009 65.7061 116.063 64.6895 117.359 64.6895H136.569L130.852 81.2308C130.711 81.6399 130.711 82.0819 130.852 82.4909L136.569 99.0322H130.604C129.463 99.0322 128.539 99.9242 128.539 101.024C128.539 102.125 129.463 103.017 130.604 103.017H139.434C140.098 103.017 140.722 102.709 141.11 102.189C141.498 101.67 141.604 101.002 141.394 100.394L134.989 81.8606ZM49.6715 40.6837L61.3169 51.9162C55.7416 51.1756 50.7923 48.9058 47.0525 45.2987C42.613 41.0165 40.1182 35.0933 39.9227 28.4633C46.7964 28.6519 52.9373 31.0582 57.3769 35.3404C61.1167 38.9473 63.4697 43.7214 64.2377 49.0987L52.5923 37.8662C51.7859 37.0882 50.4781 37.0882 49.6715 37.8662C48.8649 38.6442 48.8649 39.9057 49.6715 40.6837ZM84.5811 67.2794C89.0212 62.9967 95.1622 60.5902 102.037 60.4024C101.949 63.5301 101.35 66.4849 100.262 69.2219H82.7919C83.3495 68.5427 83.9452 67.8927 84.5811 67.2794ZM57.4188 67.2794C58.0547 67.8927 58.6503 68.5424 59.208 69.2219H41.738C40.6497 66.4849 40.0504 63.5301 39.9629 60.4024C46.8372 60.5904 52.9789 62.997 57.4188 67.2794ZM117.359 73.2063C118.655 73.2063 119.709 74.2231 119.709 75.4726V105.283C119.709 106.532 118.654 107.549 117.359 107.549H24.641C23.3452 107.549 22.2913 106.532 22.2913 105.283V75.4729C22.2913 74.2231 23.3455 73.2065 24.641 73.2065H117.359V73.2063Z" fill="white"/>
</g>
</g>
<defs>
<clipPath id="clip0_820_52225">
<rect width="141" height="136" fill="white" transform="translate(0.5)"/>
</clipPath>
</defs>
</svg>
